# xmcd
#
# Track frame offsets: 
#        150
#        21117
#        33335
#        53847
#        69792
#        83828
#        103138
#        116397
#        131271
#        150042
#        162960
#        177092
#        198871
#        210557
#        225033
#        238385
#        257618
#        274658
#        293777
#        314693
#        324564
#        336270
#        351458
#
# Disc length: 4775 seconds
#
# Revision: 0
# Processed by: cddbd v1.5.2PL0 Copyright (c) Steve Scherf et al.
# Submitted via: ExactAudioCopyFreeDBPlugin 1.0
#
DISCID=3812a517
DTITLE=Various Artist - Visions Of The Blues (Oxford American No. 18)
DYEAR=2016
DGENRE=Blues
TTITLE0=Allen Toussaint - Rocks In My Bed
TTITLE1=Koko Taylor - Yes, It's Good For You
TTITLE2=Gil Scott-Heron - New York Is Killing Me
TTITLE3=Scott Dunbar - Memphis Mail
TTITLE4=Adia Victoria - Stuck In The South
TTITLE5=Bassekou Kouyaté and Ngoni Ba - Segu Blue
TTITLE6=Charley Patton - Down The Dirt Road Blues
TTITLE7=Ida Cox (w/ Coleman Hawkins Quintet) - Wild Women Don't Have T
TTITLE7=he Blues
TTITLE8=Otis Taylor - Ten Million Slaves
TTITLE9=Big Mama Thornton (w/ Muddy Waters Blues Band) - Black Rat
TTITLE10=John Lee Hooker - John Henry
TTITLE11=CeDell Davis - One Of These Days
TTITLE12=Bobby Rush - Chicken Heads
TTITLE13=Geeshie Wiley and Elvie Thomas - Pick Poor Robin Clean
TTITLE14=Barbara Dane - You Don't Know Me
TTITLE15=Tail Dragger - My Head Is Bald
TTITLE16=Alabama Shakes - Miss You
TTITLE17=Alexis Zoumbas - Epirotiko Mirologi
TTITLE18=Bonnie Raitt - I Feel The Same
TTITLE19=Regina Carter - Trampin'
TTITLE20=Etta James - I'd Rather Go Blind
TTITLE21=John Fahey - Sunflower River Blues
TTITLE22=Etta Baker and Cora Phillips - Railroad Bill
EXTD=
EXTT0=
EXTT1=
EXTT2=
EXTT3=
EXTT4=
EXTT5=
EXTT6=
EXTT7=
EXTT8=
EXTT9=
EXTT10=
EXTT11=
EXTT12=
EXTT13=
EXTT14=
EXTT15=
EXTT16=
EXTT17=
EXTT18=
EXTT19=
EXTT20=
EXTT21=
EXTT22=
PLAYORDER=
